<svg width="50" height="50" viewBox="0 0 50 50" fill="none" xmlns="http://www.w3.org/2000/svg">
<path fill-rule="evenodd" clip-rule="evenodd" d="M22.5312 2.5C24.0312 0.921875 25 0 25 0C25.3406 1.13437 25.7313 2.2125 26.1594 3.24375C28.6969 9.325 32.6375 13.7125 36.15 17.6187C40.2437 22.175 43.75 26.0781 43.75 31.25C43.75 36.2228 41.7746 40.9919 38.2583 44.5083C34.7419 48.0246 29.9728 50 25 50C20.0272 50 15.2581 48.0246 11.7417 44.5083C8.22544 40.9919 6.25 36.2228 6.25 31.25C6.25 20.8375 17.4375 7.86562 22.5312 2.5ZM23.8219 5.69062C21.815 7.8623 19.9079 10.124 18.1063 12.4688C15.8375 15.4375 13.6188 18.7437 11.9813 22.0625C10.325 25.4156 9.375 28.5562 9.375 31.25C9.375 35.394 11.0212 39.3683 13.9515 42.2985C16.8817 45.2288 20.856 46.875 25 46.875C29.144 46.875 33.1183 45.2288 36.0485 42.2985C38.9788 39.3683 40.625 35.394 40.625 31.25C40.625 27.4969 38.1375 24.5094 33.8094 19.6875L33.7156 19.5875C30.4687 15.9688 26.5625 11.625 23.8219 5.6875V5.69062Z" fill="#1C2026"/>
<path fill-rule="evenodd" clip-rule="evenodd" d="M14.2281 24.3005C16.7906 19.1724 19.5938 15.6974 20.7688 14.5193L22.9813 16.7318C22.075 17.638 19.4563 20.8286 17.0219 25.7005L14.2281 24.3005Z" fill="#1C2026"/>
</svg>
