<svg width="50" height="50" viewBox="0 0 50 50" fill="none" xmlns="http://www.w3.org/2000/svg">
<g clip-path="url(#clip0_46_97)">
<path fill-rule="evenodd" clip-rule="evenodd" d="M0 1.5625C0 1.1481 0.16462 0.750671 0.457646 0.457646C0.750671 0.16462 1.1481 0 1.5625 0L10.9375 0C11.3519 0 11.7493 0.16462 12.0424 0.457646C12.3354 0.750671 12.5 1.1481 12.5 1.5625C12.5 1.9769 12.3354 2.37433 12.0424 2.66735C11.7493 2.96038 11.3519 3.125 10.9375 3.125H5.33437L10.9375 8.72812L12.9562 6.70625C13.1015 6.56098 13.274 6.44574 13.4638 6.36712C13.6536 6.28849 13.857 6.24803 14.0625 6.24803C14.268 6.24803 14.4714 6.28849 14.6612 6.36712C14.851 6.44574 15.0235 6.56098 15.1688 6.70625C15.314 6.85152 15.4293 7.02399 15.5079 7.2138C15.5865 7.40361 15.627 7.60705 15.627 7.8125C15.627 8.01795 15.5865 8.22139 15.5079 8.4112C15.4293 8.60101 15.314 8.77348 15.1688 8.91875L13.1469 10.9375L15.7156 13.5063C16.8864 12.2044 18.3182 11.1637 19.9178 10.4519C21.5175 9.74008 23.2491 9.37316 25 9.375C28.6875 9.375 31.9969 10.9688 34.2844 13.5063L44.6656 3.125H35.9375C35.5231 3.125 35.1257 2.96038 34.8326 2.66735C34.5396 2.37433 34.375 1.9769 34.375 1.5625C34.375 1.1481 34.5396 0.750671 34.8326 0.457646C35.1257 0.16462 35.5231 0 35.9375 0L48.4375 0C48.8519 0 49.2493 0.16462 49.5424 0.457646C49.8354 0.750671 50 1.1481 50 1.5625V14.0625C50 14.4769 49.8354 14.8743 49.5424 15.1674C49.2493 15.4604 48.8519 15.625 48.4375 15.625C48.0231 15.625 47.6257 15.4604 47.3326 15.1674C47.0396 14.8743 46.875 14.4769 46.875 14.0625V5.33437L36.0938 16.1156C37.0227 17.9034 37.5057 19.8893 37.5017 21.904C37.4977 23.9188 37.0067 25.9027 36.0706 27.6868C35.1346 29.4709 33.7811 31.0022 32.1256 32.1504C30.47 33.2987 28.5615 34.0297 26.5625 34.2812V40.625H31.25C31.6644 40.625 32.0618 40.7896 32.3549 41.0826C32.6479 41.3757 32.8125 41.7731 32.8125 42.1875C32.8125 42.6019 32.6479 42.9993 32.3549 43.2924C32.0618 43.5854 31.6644 43.75 31.25 43.75H26.5625V48.4375C26.5625 48.8519 26.3979 49.2493 26.1049 49.5424C25.8118 49.8354 25.4144 50 25 50C24.5856 50 24.1882 49.8354 23.8951 49.5424C23.6021 49.2493 23.4375 48.8519 23.4375 48.4375V43.75H18.75C18.3356 43.75 17.9382 43.5854 17.6451 43.2924C17.3521 42.9993 17.1875 42.6019 17.1875 42.1875C17.1875 41.7731 17.3521 41.3757 17.6451 41.0826C17.9382 40.7896 18.3356 40.625 18.75 40.625H23.4375V34.2812C21.4381 34.0299 19.5291 33.2988 17.8732 32.1504C16.2173 31.002 14.8636 29.4703 13.9274 27.6858C12.9913 25.9013 12.5004 23.9169 12.4968 21.9017C12.4931 19.8866 12.9766 17.9004 13.9062 16.1125L10.9375 13.1469L8.91875 15.1688C8.77348 15.314 8.60101 15.4293 8.4112 15.5079C8.22139 15.5865 8.01795 15.627 7.8125 15.627C7.60705 15.627 7.40361 15.5865 7.2138 15.5079C7.02399 15.4293 6.85152 15.314 6.70625 15.1688C6.56098 15.0235 6.44574 14.851 6.36712 14.6612C6.28849 14.4714 6.24803 14.268 6.24803 14.0625C6.24803 13.857 6.28849 13.6536 6.36712 13.4638C6.44574 13.274 6.56098 13.1015 6.70625 12.9562L8.72812 10.9375L3.125 5.33437V10.9375C3.125 11.3519 2.96038 11.7493 2.66735 12.0424C2.37433 12.3354 1.9769 12.5 1.5625 12.5C1.1481 12.5 0.750671 12.3354 0.457646 12.0424C0.16462 11.7493 0 11.3519 0 10.9375V1.5625ZM17.1562 16.7375C16.4816 17.7676 16.0164 18.9204 15.7873 20.1302C15.5582 21.3401 15.5696 22.5832 15.8209 23.7886C16.0722 24.994 16.5584 26.1381 17.2519 27.1556C17.9454 28.1731 18.8324 29.0441 19.8625 29.7188C20.8926 30.3934 22.0454 30.8586 23.2552 31.0877C24.4651 31.3168 25.7082 31.3054 26.9136 31.0541C28.119 30.8028 29.2631 30.3166 30.2806 29.6231C31.2981 28.9296 32.1691 28.0426 32.8438 27.0125C34.2063 24.9322 34.6866 22.3958 34.1791 19.9614C33.6716 17.5269 32.2178 15.3938 30.1375 14.0313C28.0572 12.6687 25.5208 12.1883 23.0864 12.6959C20.6519 13.2034 18.5188 14.6572 17.1562 16.7375Z" fill="#1C2026"/>
</g>
<defs>
<clipPath id="clip0_46_97">
<rect width="50" height="50" fill="white"/>
</clipPath>
</defs>
</svg>
