<svg width="50" height="50" viewBox="0 0 50 50" fill="none" xmlns="http://www.w3.org/2000/svg">
<g clip-path="url(#clip0_46_90)">
<path d="M42.1875 0C41.7731 0 41.3757 0.16462 41.0826 0.457646C40.7896 0.750671 40.625 1.1481 40.625 1.5625C40.625 1.9769 40.7896 2.37433 41.0826 2.66735C41.3757 2.96038 41.7731 3.125 42.1875 3.125H46.875V11.7188H45.3125C44.8981 11.7188 44.5007 11.8834 44.2076 12.1764C43.9146 12.4694 43.75 12.8668 43.75 13.2812C43.75 13.6957 43.9146 14.0931 44.2076 14.3861C44.5007 14.6791 44.8981 14.8438 45.3125 14.8438H46.875V23.4375H42.1875C41.7731 23.4375 41.3757 23.6021 41.0826 23.8951C40.7896 24.1882 40.625 24.5856 40.625 25C40.625 25.4144 40.7896 25.8118 41.0826 26.1049C41.3757 26.3979 41.7731 26.5625 42.1875 26.5625H46.875V35.1562H45.3125C44.8981 35.1562 44.5007 35.3209 44.2076 35.6139C43.9146 35.9069 43.75 36.3043 43.75 36.7188C43.75 37.1332 43.9146 37.5306 44.2076 37.8236C44.5007 38.1166 44.8981 38.2812 45.3125 38.2812H46.875V46.875H42.1875C41.7731 46.875 41.3757 47.0396 41.0826 47.3326C40.7896 47.6257 40.625 48.0231 40.625 48.4375C40.625 48.8519 40.7896 49.2493 41.0826 49.5424C41.3757 49.8354 41.7731 50 42.1875 50H48.4375C48.8519 50 49.2493 49.8354 49.5424 49.5424C49.8354 49.2493 50 48.8519 50 48.4375V1.5625C50 1.1481 49.8354 0.750671 49.5424 0.457646C49.2493 0.16462 48.8519 0 48.4375 0L42.1875 0ZM21.875 4.6875L23.0125 3.61562C22.8664 3.4605 22.6901 3.3369 22.4945 3.25241C22.2989 3.16792 22.0881 3.12434 21.875 3.12434C21.6619 3.12434 21.4511 3.16792 21.2555 3.25241C21.0599 3.3369 20.8836 3.4605 20.7375 3.61562L20.7312 3.62188L20.7125 3.64375L20.6438 3.71563L20.3938 3.99062C19.0121 5.52415 17.6842 7.10532 16.4125 8.73125C14.0094 11.8031 11.0563 15.9969 8.95938 20.3781C7.4 23.6375 6.25 27.1312 6.25 30.4156C6.25 39.4188 13.1625 46.875 21.875 46.875C30.5875 46.875 37.5 39.4188 37.5 30.4156C37.5 27.1344 36.35 23.6375 34.7906 20.3781C32.6938 15.9969 29.7406 11.8031 27.3375 8.73125C25.9893 7.00789 24.5779 5.33488 23.1063 3.71563L23.0375 3.64375L23.0188 3.62188L23.0125 3.61875L21.875 4.6875ZM21.875 4.6875L20.7375 3.61562L21.875 4.6875ZM21.825 7.08125L21.875 7.02187L21.925 7.08125C22.675 7.9375 23.7125 9.16563 24.875 10.6562C26.7844 13.0969 29 16.2062 30.8156 19.4906H12.9375C14.75 16.2062 16.9688 13.0969 18.875 10.6562C20.0406 9.16563 21.0813 7.9375 21.8281 7.08125H21.825ZM9.375 30.4156C9.375 28.0562 10.1375 25.3781 11.3688 22.6156H32.3813C33.6156 25.3781 34.375 28.0562 34.375 30.4156C34.375 37.8656 28.6938 43.75 21.875 43.75C15.0563 43.75 9.375 37.8656 9.375 30.4156Z" fill="#1C2026"/>
</g>
<defs>
<clipPath id="clip0_46_90">
<rect width="50" height="50" fill="white"/>
</clipPath>
</defs>
</svg>
