<svg width="50" height="50" viewBox="0 0 50 50" fill="none" xmlns="http://www.w3.org/2000/svg">
<g clip-path="url(#clip0_47_8)">
<path fill-rule="evenodd" clip-rule="evenodd" d="M15.7499 0.946876C15.8705 0.665626 16.071 0.425968 16.3266 0.257641C16.5821 0.0893141 16.8814 -0.000271537 17.1874 6.18255e-07H32.8124C33.4374 6.18255e-07 33.9999 0.375001 34.2499 0.946876L43.6249 22.8219C43.7164 23.0359 43.7589 23.2676 43.7493 23.5001C43.7397 23.7326 43.6783 23.96 43.5696 24.1658C43.4609 24.3715 43.3076 24.5504 43.1209 24.6893C42.9342 24.8282 42.7189 24.9237 42.4906 24.9688H42.4843C42.0156 25.0625 41.5468 25.1438 41.0781 25.2219C36.2773 26.0092 31.4264 26.4531 26.5624 26.55V42.1875C26.5624 42.6019 26.3978 42.9993 26.1048 43.2924C25.8118 43.5854 25.4143 43.75 24.9999 43.75C24.5855 43.75 24.1881 43.5854 23.8951 43.2924C23.6021 42.9993 23.4374 42.6019 23.4374 42.1875V26.5469C18.5735 26.4497 13.7227 26.0059 8.92182 25.2188C8.45307 25.1406 7.98432 25.0625 7.51557 24.9688H7.5062C7.27777 24.9234 7.06236 24.8276 6.87573 24.6883C6.6891 24.549 6.53597 24.3698 6.42753 24.1637C6.31909 23.9576 6.25809 23.7299 6.249 23.4972C6.2399 23.2645 6.28293 23.0327 6.37495 22.8188L15.7499 0.943751V0.946876ZM10.0312 22.2375C14.9826 23.0209 19.987 23.422 24.9999 23.4375C30.014 23.4222 35.0194 23.021 39.9718 22.2375L31.7843 3.125H18.2187L10.0281 22.2375H10.0312Z" fill="#1C2026"/>
<path d="M20.2906 39.2935C20.3584 39.7021 20.2612 40.1209 20.0203 40.4578C19.7795 40.7947 19.4148 41.0223 19.0062 41.0904C16.7812 41.4592 15.0063 42.0123 13.8344 42.631C13.4039 42.838 13.0126 43.1182 12.6781 43.4592C12.6124 43.5286 12.5576 43.6076 12.5156 43.6935L12.5125 43.706L12.5 43.7373V43.7498L12.5062 43.7748C12.5185 43.8111 12.5353 43.8458 12.5563 43.8779C12.6797 44.0586 12.8329 44.2171 13.0094 44.3467C13.525 44.7529 14.3687 45.1904 15.55 45.581C17.8969 46.3623 21.2375 46.8748 25 46.8748C28.7625 46.8748 32.1031 46.3654 34.45 45.581C35.6313 45.1873 36.475 44.7529 36.9906 44.3467C37.1682 44.2174 37.3225 44.0589 37.4469 43.8779C37.4667 43.8456 37.4824 43.8109 37.4937 43.7748L37.5 43.7498V43.7373C37.4578 43.6337 37.3975 43.5384 37.3219 43.456C36.9871 43.1161 36.5959 42.837 36.1656 42.631C34.9906 42.0123 33.2188 41.4592 30.9938 41.0904C30.7865 41.0623 30.587 40.9929 30.407 40.8863C30.2271 40.7797 30.0704 40.638 29.9462 40.4697C29.8221 40.3014 29.7329 40.1099 29.6842 39.9065C29.6354 39.7031 29.6279 39.492 29.6622 39.2857C29.6965 39.0794 29.7719 38.882 29.8839 38.7054C29.9959 38.5288 30.1422 38.3764 30.3142 38.2573C30.4862 38.1383 30.6803 38.055 30.8851 38.0124C31.0898 37.9697 31.3011 37.9686 31.5062 38.0092C33.9125 38.406 36.0437 39.0342 37.6219 39.8654C39.0625 40.6248 40.625 41.8748 40.625 43.7498C40.625 45.081 39.8125 46.0998 38.925 46.8029C38.0188 47.5154 36.8 48.0935 35.4375 48.5467C32.6938 49.4623 29.0031 49.9998 25 49.9998C20.9969 49.9998 17.3062 49.4623 14.5625 48.5467C13.2 48.0935 11.9812 47.5154 11.075 46.8029C10.1875 46.0998 9.375 45.081 9.375 43.7498C9.375 41.8779 10.9375 40.6248 12.3781 39.8654C13.9562 39.0342 16.0875 38.406 18.4938 38.0092C18.9023 37.9414 19.3211 38.0386 19.658 38.2794C19.995 38.5203 20.2225 38.885 20.2906 39.2935Z" fill="#1C2026"/>
</g>
<defs>
<clipPath id="clip0_47_8">
<rect width="50" height="50" fill="white"/>
</clipPath>
</defs>
</svg>
