<svg width="50" height="50" viewBox="0 0 50 50" fill="none" xmlns="http://www.w3.org/2000/svg">
<path d="M35.7001 25C37.0657 24.8375 38.2344 24.575 38.9501 24.1625C40.3739 23.3278 41.4097 21.9638 41.8316 20.3682C42.2534 18.7726 42.027 17.075 41.2018 15.6457C40.3766 14.2164 39.0195 13.1715 37.4267 12.7391C35.834 12.3066 34.1348 12.5218 32.7001 13.3375C31.9844 13.75 31.1719 14.6312 30.3501 15.7344C30.8938 14.4687 31.2501 13.325 31.2501 12.5C31.2501 10.8424 30.5916 9.25268 29.4195 8.08058C28.2474 6.90848 26.6577 6.25 25.0001 6.25C23.3425 6.25 21.7527 6.90848 20.5806 8.08058C19.4085 9.25268 18.7501 10.8424 18.7501 12.5C18.7501 13.325 19.1063 14.4687 19.6501 15.7344C18.8282 14.6312 18.0157 13.75 17.3001 13.3375C15.8653 12.5218 14.1662 12.3066 12.5734 12.7391C10.9806 13.1715 9.62358 14.2164 8.79835 15.6457C7.97312 17.075 7.74673 18.7726 8.16858 20.3682C8.59043 21.9638 9.62627 23.3278 11.0501 24.1625C11.7657 24.575 12.9344 24.8375 14.3001 25C12.9344 25.1625 11.7657 25.425 11.0501 25.8375C10.3335 26.2449 9.70465 26.79 9.19964 27.4414C8.69463 28.0928 8.32346 28.8377 8.1075 29.6332C7.89154 30.4286 7.83505 31.2589 7.9413 32.0763C8.04754 32.8937 8.31441 33.682 8.72654 34.3958C9.13868 35.1096 9.68793 35.7349 10.3427 36.2355C10.9975 36.7362 11.7448 37.1024 12.5416 37.3131C13.3385 37.5238 14.1692 37.5748 14.9858 37.4631C15.8025 37.3515 16.589 37.0794 17.3001 36.6625C18.0157 36.25 18.8282 35.3687 19.6501 34.2656C19.1063 35.5312 18.7501 36.675 18.7501 37.5C18.7501 39.1576 19.4085 40.7473 20.5806 41.9194C21.7527 43.0915 23.3425 43.75 25.0001 43.75C26.6577 43.75 28.2474 43.0915 29.4195 41.9194C30.5916 40.7473 31.2501 39.1576 31.2501 37.5C31.2501 36.675 30.8938 35.5312 30.3501 34.2656C31.1719 35.3687 31.9844 36.25 32.7001 36.6625C33.4111 37.0794 34.1976 37.3515 35.0143 37.4631C35.8309 37.5748 36.6616 37.5238 37.4585 37.3131C38.2553 37.1024 39.0027 36.7362 39.6574 36.2355C40.3122 35.7349 40.8615 35.1096 41.2736 34.3958C41.6857 33.682 41.9526 32.8937 42.0588 32.0763C42.1651 31.2589 42.1086 30.4286 41.8926 29.6332C41.6767 28.8377 41.3055 28.0928 40.8005 27.4414C40.2955 26.79 39.6666 26.2449 38.9501 25.8375C38.2344 25.425 37.0657 25.1625 35.7001 25ZM28.1251 12.5C28.0935 12.7166 28.0465 12.9307 27.9844 13.1406C27.8626 13.5531 27.6719 14.0625 27.4126 14.6531C26.8177 15.9617 26.1533 17.2375 25.4219 18.475L25.0001 19.1938C24.858 18.955 24.7173 18.7154 24.5782 18.475C23.8469 17.2375 23.1824 15.9617 22.5876 14.6531C22.3662 14.1611 22.1752 13.656 22.0157 13.1406C21.9536 12.9307 21.9066 12.7166 21.8751 12.5C21.8751 11.6712 22.2043 10.8763 22.7904 10.2903C23.3764 9.70424 24.1713 9.375 25.0001 9.375C25.8289 9.375 26.6237 9.70424 27.2098 10.2903C27.7958 10.8763 28.1251 11.6712 28.1251 12.5ZM11.4688 17.1875C11.8832 16.4698 12.5658 15.9461 13.3663 15.7316C14.1669 15.5171 15.0198 15.6294 15.7376 16.0437C15.9105 16.1798 16.0734 16.3281 16.2251 16.4875C16.5188 16.8 16.8626 17.2156 17.2438 17.7375C18.0094 18.7781 18.8126 20.0719 19.5626 21.3719L19.9688 22.0969C19.6928 22.1006 19.4167 22.1027 19.1407 22.1031C17.7019 22.1177 16.2634 22.0551 14.8313 21.9156C14.2953 21.8618 13.763 21.7752 13.2376 21.6562C13.0247 21.6046 12.8159 21.5377 12.6126 21.4563C11.8948 21.0418 11.3711 20.3593 11.1566 19.5587C10.9421 18.7582 11.0544 17.9052 11.4688 17.1875ZM15.7376 33.9563C15.0202 34.3641 14.1706 34.4717 13.3742 34.2555C12.5779 34.0393 11.8993 33.5168 11.4867 32.8022C11.0741 32.0875 10.9609 31.2387 11.1718 30.4409C11.3827 29.6431 11.9007 28.9611 12.6126 28.5437C12.6157 28.5437 12.6626 28.5188 12.7594 28.4813C12.8751 28.4406 13.0313 28.3937 13.2376 28.3438C13.6563 28.2437 14.1907 28.1563 14.8313 28.0844C16.2634 27.9449 17.7019 27.8823 19.1407 27.8969C19.4219 27.8969 19.6969 27.8969 19.9719 27.9031C19.837 28.1456 19.7005 28.3873 19.5626 28.6281C18.8126 29.9281 18.0094 31.2219 17.2438 32.2625C16.9298 32.7002 16.5885 33.1177 16.2219 33.5125C16.0712 33.6717 15.9093 33.82 15.7376 33.9563ZM28.1251 37.5C28.1251 38.3288 27.7958 39.1237 27.2098 39.7097C26.6237 40.2958 25.8289 40.625 25.0001 40.625C24.1713 40.625 23.3764 40.2958 22.7904 39.7097C22.2043 39.1237 21.8751 38.3288 21.8751 37.5C21.9065 37.2823 21.9535 37.0672 22.0157 36.8562C22.1376 36.4469 22.3282 35.9375 22.5876 35.3469C23.1063 34.1656 23.8251 32.8219 24.5782 31.525L25.0001 30.8062L25.4219 31.525C26.1751 32.8219 26.8907 34.1656 27.4126 35.3469C27.6719 35.9406 27.8626 36.4469 27.9844 36.8594C28.048 37.0689 28.095 37.2831 28.1251 37.5ZM38.5313 17.1875C38.9457 17.9052 39.058 18.7582 38.8435 19.5587C38.629 20.3593 38.1053 21.0418 37.3876 21.4563C37.1842 21.5377 36.9754 21.6045 36.7626 21.6562C36.3438 21.7562 35.8094 21.8438 35.1688 21.9156C33.8813 22.0562 32.3626 22.1062 30.8594 22.1031C30.5782 22.1031 30.3032 22.1031 30.0282 22.0969L30.4376 21.3719C31.1876 20.0719 31.9907 18.7781 32.7563 17.7375C33.0703 17.2998 33.4116 16.8823 33.7782 16.4875C33.9219 16.3313 34.0438 16.2188 34.1344 16.1437C34.2157 16.075 34.2594 16.05 34.2626 16.0437C34.9803 15.6294 35.8333 15.5171 36.6338 15.7316C37.4343 15.9461 38.1169 16.4698 38.5313 17.1875ZM34.2626 33.9563C34.091 33.8209 33.9291 33.6737 33.7782 33.5156C33.4124 33.1202 33.0711 32.7027 32.7563 32.2656C31.9188 31.0944 31.1448 29.8791 30.4376 28.625C30.3007 28.3842 30.1653 28.1425 30.0313 27.9L30.8594 27.8937C32.3594 27.8906 33.8813 27.9406 35.1688 28.0812C35.8094 28.1531 36.3438 28.2406 36.7626 28.3406C36.9688 28.3906 37.1251 28.4375 37.2407 28.4781L37.3907 28.5406C37.749 28.7443 38.0634 29.0169 38.3159 29.3426C38.5684 29.6683 38.754 30.0407 38.862 30.4385C38.97 30.8362 38.9982 31.2513 38.9451 31.66C38.892 32.0687 38.7585 32.4629 38.5525 32.8198C38.3464 33.1767 38.0718 33.4893 37.7444 33.7396C37.417 33.99 37.0433 34.1731 36.6449 34.2784C36.2465 34.3838 35.8311 34.4093 35.4228 34.3534C35.0145 34.2976 34.6212 34.1616 34.2657 33.9531L34.2626 33.9563ZM25.0001 28.125C24.1713 28.125 23.3764 27.7958 22.7904 27.2097C22.2043 26.6237 21.8751 25.8288 21.8751 25C21.8751 24.1712 22.2043 23.3763 22.7904 22.7903C23.3764 22.2042 24.1713 21.875 25.0001 21.875C25.8289 21.875 26.6237 22.2042 27.2098 22.7903C27.7958 23.3763 28.1251 24.1712 28.1251 25C28.1251 25.8288 27.7958 26.6237 27.2098 27.2097C26.6237 27.7958 25.8289 28.125 25.0001 28.125Z" fill="#1C2026"/>
</svg>
