<svg width="50" height="50" viewBox="0 0 50 50" fill="none" xmlns="http://www.w3.org/2000/svg">
<g clip-path="url(#clip0_46_2)">
<path d="M15.625 39.0625C15.6246 39.9218 15.3879 40.7644 14.941 41.4982C14.494 42.2321 13.854 42.829 13.0907 43.2237C12.3275 43.6184 11.4704 43.7958 10.6132 43.7363C9.756 43.6769 8.93163 43.3829 8.23017 42.8867C7.52871 42.3904 6.97716 41.7108 6.6358 40.9223C6.29443 40.1337 6.17637 39.2665 6.29454 38.4154C6.4127 37.5643 6.76253 36.7621 7.3058 36.0964C7.84907 35.4306 8.56488 34.927 9.375 34.6406V29.6875C9.375 29.2731 9.53962 28.8757 9.83265 28.5826C10.1257 28.2896 10.5231 28.125 10.9375 28.125C11.3519 28.125 11.7493 28.2896 12.0424 28.5826C12.3354 28.8757 12.5 29.2731 12.5 29.6875V34.6406C13.4143 34.9639 14.2058 35.5628 14.7655 36.3547C15.3252 37.1467 15.6255 38.0927 15.625 39.0625Z" fill="#2D2D2D"/>
<path d="M3.12501 7.8125C3.12501 5.7405 3.94811 3.75336 5.41323 2.28823C6.87836 0.8231 8.8655 0 10.9375 0C13.0095 0 14.9967 0.8231 16.4618 2.28823C17.9269 3.75336 18.75 5.7405 18.75 7.8125V31.4062C20.2573 32.9446 21.2769 34.8938 21.6809 37.0093C22.0849 39.1248 21.8553 41.3125 21.021 43.298C20.1866 45.2836 18.7846 46.9786 16.9908 48.1706C15.197 49.3625 13.0912 49.9984 10.9375 49.9984C8.78378 49.9984 6.67798 49.3625 4.88418 48.1706C3.09037 46.9786 1.6884 45.2836 0.854061 43.298C0.019723 41.3125 -0.209843 39.1248 0.194149 37.0093C0.598142 34.8938 1.61771 32.9446 3.12501 31.4062V7.8125ZM10.9375 3.125C9.6943 3.125 8.50202 3.61886 7.62294 4.49794C6.74387 5.37701 6.25001 6.5693 6.25001 7.8125V32.7719L5.72813 33.2406C4.54867 34.2954 3.71728 35.6834 3.34398 37.221C2.97068 38.7586 3.07307 40.3734 3.6376 41.8515C4.20213 43.3297 5.20218 44.6016 6.50542 45.4989C7.80867 46.3962 9.35366 46.8767 10.9359 46.8767C12.5182 46.8767 14.0632 46.3962 15.3665 45.4989C16.6697 44.6016 17.6698 43.3297 18.2343 41.8515C18.7988 40.3734 18.9012 38.7586 18.5279 37.221C18.1546 35.6834 17.3232 34.2954 16.1438 33.2406L15.625 32.7687V7.8125C15.625 6.5693 15.1311 5.37701 14.2521 4.49794C13.373 3.61886 12.1807 3.125 10.9375 3.125ZM26.5625 6.25C26.9769 6.25 27.3743 6.41462 27.6674 6.70765C27.9604 7.00067 28.125 7.3981 28.125 7.8125V11.8531L30.1438 9.83125C30.4372 9.53785 30.8351 9.37303 31.25 9.37303C31.6649 9.37303 32.0629 9.53785 32.3563 9.83125C32.6497 10.1246 32.8145 10.5226 32.8145 10.9375C32.8145 11.3524 32.6497 11.7504 32.3563 12.0437L28.125 16.2719V22.2937L33.3406 19.2844L34.8875 13.5031C34.9409 13.3049 35.0327 13.1191 35.1579 12.9564C35.283 12.7937 35.439 12.6573 35.6169 12.5548C35.7947 12.4524 35.9911 12.386 36.1946 12.3594C36.3981 12.3329 36.6049 12.3466 36.8031 12.4C37.0014 12.4533 37.1871 12.5452 37.3498 12.6704C37.5125 12.7955 37.649 12.9515 37.7514 13.1293C37.8539 13.3072 37.9203 13.5035 37.9468 13.7071C37.9734 13.9106 37.9596 14.1174 37.9063 14.3156L37.1656 17.0719L40.6656 15.0531C41.0243 14.8492 41.4491 14.7954 41.8473 14.9035C42.2455 15.0116 42.5848 15.2728 42.7911 15.6302C42.9974 15.9875 43.054 16.4119 42.9485 16.8108C42.843 17.2097 42.5841 17.5507 42.2281 17.7594L38.7281 19.7781L41.4906 20.5187C41.6889 20.5721 41.8746 20.664 42.0373 20.7891C42.2 20.9142 42.3365 21.0702 42.4389 21.2481C42.5414 21.426 42.6078 21.6223 42.6343 21.8258C42.6609 22.0294 42.6471 22.2362 42.5938 22.4344C42.5404 22.6326 42.4485 22.8184 42.3234 22.9811C42.1983 23.1438 42.0423 23.2802 41.8644 23.3827C41.6865 23.4851 41.4902 23.5515 41.2867 23.5781C41.0831 23.6046 40.8764 23.5908 40.6781 23.5375L34.9031 21.9906L29.6875 25L34.9031 28.0094L40.6813 26.4625C40.8807 26.4056 41.0895 26.3891 41.2954 26.4137C41.5013 26.4384 41.7003 26.5038 41.8806 26.6061C42.061 26.7084 42.2192 26.8457 42.346 27.0098C42.4728 27.1739 42.5657 27.3616 42.6192 27.5619C42.6727 27.7623 42.6858 27.9713 42.6577 28.1768C42.6296 28.3823 42.5609 28.5801 42.4556 28.7588C42.3502 28.9374 42.2104 29.0933 42.0442 29.2173C41.878 29.3414 41.6887 29.4311 41.4875 29.4812L38.7281 30.2219L42.2281 32.2406C42.5841 32.4493 42.843 32.7903 42.9485 33.1892C43.054 33.5881 42.9974 34.0125 42.7911 34.3698C42.5848 34.7272 42.2455 34.9884 41.8473 35.0965C41.4491 35.2046 41.0243 35.1508 40.6656 34.9469L37.1656 32.9281L37.9063 35.6875C37.9631 35.8869 37.9797 36.0957 37.9551 36.3016C37.9304 36.5075 37.865 36.7065 37.7627 36.8869C37.6603 37.0673 37.5231 37.2255 37.359 37.3523C37.1949 37.4791 37.0072 37.572 36.8068 37.6255C36.6064 37.679 36.3974 37.6921 36.1919 37.664C35.9865 37.6359 35.7886 37.5672 35.61 37.4618C35.4314 37.3565 35.2755 37.2166 35.1514 37.0504C35.0274 36.8842 34.9377 36.695 34.8875 36.4937L33.3438 30.7187L28.125 27.7062V33.7281L32.3563 37.9562C32.5015 38.1015 32.6168 38.274 32.6954 38.4638C32.774 38.6536 32.8145 38.857 32.8145 39.0625C32.8145 39.2679 32.774 39.4714 32.6954 39.6612C32.6168 39.851 32.5015 40.0235 32.3563 40.1687C32.211 40.314 32.0385 40.4293 31.8487 40.5079C31.6589 40.5865 31.4555 40.627 31.25 40.627C31.0446 40.627 30.8411 40.5865 30.6513 40.5079C30.4615 40.4293 30.289 40.314 30.1438 40.1687L28.125 38.1469V42.1875C28.125 42.6019 27.9604 42.9993 27.6674 43.2924C27.3743 43.5854 26.9769 43.75 26.5625 43.75C26.1481 43.75 25.7507 43.5854 25.4577 43.2924C25.1646 42.9993 25 42.6019 25 42.1875V7.8125C25 7.3981 25.1646 7.00067 25.4577 6.70765C25.7507 6.41462 26.1481 6.25 26.5625 6.25Z" fill="#2D2D2D"/>
</g>
<defs>
<clipPath id="clip0_46_2">
<rect width="50" height="50" fill="white"/>
</clipPath>
</defs>
</svg>
